<?xml version="1.0" standalone="no"?>
<!DOCTYPE svg PUBLIC "-//W3C//DTD SVG 20010904//EN"
 "http://www.w3.org/TR/2001/REC-SVG-20010904/DTD/svg10.dtd">
<svg version="1.0" xmlns="http://www.w3.org/2000/svg"
 width="2090.000000pt" height="2090.000000pt" viewBox="0 0 2090.000000 2090.000000"
 preserveAspectRatio="xMidYMid meet">
<metadata>
Created by potrace 1.11, written by Peter Selinger 2001-2013
</metadata>
<g transform="translate(0.000000,2090.000000) scale(0.100000,-0.100000)"
fill="#000000" stroke="none">
<path d="M5780 17975 l0 -1465 1208 0 1208 0 27 -87 c16 -49 45 -142 67 -208
21 -66 70 -221 110 -345 39 -124 75 -236 80 -250 5 -14 41 -126 80 -250 39
-124 84 -263 100 -310 15 -47 37 -116 49 -155 12 -38 44 -137 71 -220 26 -82
80 -251 120 -375 77 -242 232 -727 256 -799 8 -25 14 -50 14 -58 0 -7 -38 -70
-84 -140 -86 -133 -180 -278 -257 -397 -24 -39 -71 -112 -104 -163 -59 -91
-202 -312 -302 -467 -28 -45 -90 -139 -136 -211 -107 -166 -138 -214 -342
-530 -241 -375 -273 -425 -340 -528 -275 -425 -493 -762 -505 -782 -8 -14
-224 -349 -480 -745 -545 -844 -555 -859 -655 -1015 -81 -128 -237 -370 -255
-395 -25 -38 -161 -249 -215 -335 -33 -53 -66 -103 -72 -113 -20 -27 -123
-184 -123 -187 0 -2 -54 -86 -119 -187 -276 -424 -486 -753 -489 -765 -2 -7
-7 -13 -11 -13 -4 0 -20 -21 -35 -47 -15 -27 -103 -165 -195 -308 -177 -272
-541 -835 -601 -930 -19 -30 -147 -229 -285 -441 -137 -213 -273 -424 -302
-468 -124 -194 -166 -259 -413 -641 -91 -140 -185 -286 -210 -325 -53 -82
-244 -379 -312 -483 -26 -39 -61 -94 -78 -122 -17 -27 -63 -100 -103 -160
-179 -274 -288 -447 -284 -451 4 -4 182 -7 1187 -19 261 -3 626 -8 810 -10
599 -8 1271 -16 1435 -18 l160 -2 54 80 c30 44 100 148 156 230 56 83 139 206
186 275 46 69 86 127 89 130 3 3 68 98 145 213 77 114 181 267 230 340 50 73
209 308 355 522 145 215 300 442 343 505 43 63 100 147 125 185 26 39 50 72
54 73 5 2 8 10 8 17 0 7 3 15 8 17 4 2 36 46 71 98 35 52 110 163 166 245 253
373 367 542 472 695 61 91 155 228 207 305 155 229 304 448 441 650 72 105
159 233 195 286 36 53 121 179 190 280 169 250 324 478 474 699 69 102 188
277 265 390 77 113 178 261 224 330 47 69 215 316 374 550 158 234 315 464
348 513 32 48 62 84 66 80 4 -5 32 -71 62 -148 30 -77 126 -318 212 -535 86
-217 201 -510 257 -650 55 -140 106 -268 113 -285 7 -16 25 -61 40 -100 33
-86 45 -115 56 -137 5 -10 9 -22 9 -28 0 -6 9 -29 19 -53 11 -23 68 -163 126
-312 59 -148 150 -378 202 -510 52 -132 106 -269 120 -305 14 -36 31 -78 38
-95 7 -16 72 -178 143 -360 72 -181 192 -485 267 -675 75 -190 161 -408 192
-485 30 -77 58 -149 63 -160 5 -11 37 -90 70 -175 34 -85 65 -164 70 -175 26
-62 234 -590 233 -592 -1 -2 8 -26 21 -55 13 -29 69 -170 125 -313 57 -143
108 -273 116 -290 7 -16 36 -91 65 -165 29 -74 58 -148 65 -165 14 -33 81
-202 198 -500 142 -360 348 -880 357 -900 5 -11 21 -51 35 -90 15 -38 33 -83
40 -100 7 -16 29 -73 49 -125 52 -132 75 -182 84 -177 4 3 95 33 202 67 107
34 242 77 300 95 58 19 186 59 285 90 99 31 191 60 205 65 14 5 106 34 205 65
99 31 198 62 220 70 22 7 114 37 205 65 91 28 176 55 190 60 14 5 104 33 200
64 270 84 556 175 655 207 50 16 104 33 120 38 58 18 423 133 635 201 118 38
332 105 475 150 143 45 285 90 315 100 30 10 123 39 205 65 83 25 161 50 175
55 14 5 113 36 220 70 494 156 608 194 606 204 -2 11 -117 368 -176 546 -15
47 -67 207 -115 355 -47 149 -93 288 -100 310 -14 40 -188 579 -227 705 -11
36 -24 74 -29 85 -4 11 -44 135 -89 275 -110 347 -125 386 -141 381 -8 -1 -57
-16 -109 -32 -52 -17 -102 -32 -110 -34 -27 -7 -142 -42 -295 -90 -82 -26
-154 -48 -160 -49 -10 -2 -82 -24 -300 -91 -60 -18 -162 -49 -225 -69 -63 -19
-173 -53 -245 -74 -71 -22 -170 -52 -220 -67 -49 -15 -110 -34 -135 -42 -25
-8 -52 -16 -60 -18 -8 -2 -149 -45 -313 -95 -165 -51 -302 -88 -307 -84 -7 8
-63 147 -262 649 -32 83 -63 159 -68 170 -5 11 -113 283 -241 605 -127 322
-237 599 -244 615 -7 17 -25 62 -40 100 -15 39 -41 104 -57 145 -17 41 -35 85
-39 98 -5 12 -13 32 -19 45 -5 12 -68 171 -140 352 -72 182 -134 339 -139 350
-5 11 -26 63 -46 115 -20 52 -43 109 -50 125 -7 17 -43 105 -79 197 -36 93
-96 243 -132 335 -36 93 -72 182 -79 198 -7 17 -25 62 -40 100 -27 73 -33 87
-58 145 -29 68 -107 268 -107 274 0 3 -11 29 -23 58 -13 29 -30 69 -37 88 -7
19 -19 49 -26 65 -18 43 -323 810 -471 1185 -68 173 -128 324 -133 335 -5 11
-107 265 -226 565 -119 300 -313 788 -431 1085 -278 700 -376 946 -660 1660
-129 325 -238 599 -243 610 -12 25 -205 509 -235 590 -12 33 -156 395 -320
805 -163 410 -330 831 -371 935 -42 105 -86 215 -98 245 -13 30 -96 240 -186
465 -89 226 -168 424 -175 440 -7 17 -56 140 -109 275 -53 135 -101 254 -106
265 -5 11 -43 106 -84 210 l-75 190 -2291 3 -2290 2 0 -1465z"/>
</g>
</svg>
